<svg xmlns="http://www.w3.org/2000/svg" cx="50%" cy="50%" class="recharts-surface" width="642" height="300" viewBox="0 0 642 300" style="width: 100%; height: 100%;"><title/><desc/><defs><clipPath id="recharts34-clip"><rect x="5" y="5" height="266" width="632"/></clipPath></defs><g class="recharts-layer recharts-pie" tabindex="0"><g class="recharts-layer"><g class="recharts-layer recharts-pie-sector" tabindex="-1"><path cx="321" cy="138" name="כרטיס ועמידים" stroke="#fff" fill="#5A7863" stroke-width="2" tabindex="-1" class="recharts-sector" d="M 421,138&#10;    A 100,100,0,&#10;    0,0,&#10;    319.9286302630556,38.00573933026577&#10;  L 320.35717815783335,78.00344359815946&#10;            A 60,60,0,&#10;            0,1,&#10;            381,138 Z" role="img"/></g><g class="recharts-layer recharts-pie-sector" tabindex="-1"><path cx="321" cy="138" name="ביטוח וחסכון" stroke="#fff" fill="#90AB8B" stroke-width="2" tabindex="-1" class="recharts-sector" d="M 316.43953354203944,38.10404339671291&#10;    A 100,100,0,&#10;    0,0,&#10;    221.00100931785795,137.55070883286686&#10;  L 261.00060559071477,137.7304252997201&#10;            A 60,60,0,&#10;            0,1,&#10;            318.2637201252237,78.06242603802775 Z" role="img"/></g><g class="recharts-layer recharts-pie-sector" tabindex="-1"><path cx="321" cy="138" name="הלוואות וניכיון" stroke="#fff" fill="#EBF4DD" stroke-width="2" tabindex="-1" class="recharts-sector" d="M 221.04624596549337,141.04089697447128&#10;    A 100,100,0,&#10;    0,0,&#10;    319.03015182431466,237.98059660836572&#10;  L 319.8180910945888,197.98835796501942&#10;            A 60,60,0,&#10;            0,1,&#10;            261.02774757929603,139.82453818468278 Z" role="img"/></g><g class="recharts-layer recharts-pie-sector" tabindex="-1"><path cx="321" cy="138" name="ייעוץ פיננסי" stroke="#fff" fill="#3B4953" stroke-width="2" tabindex="-1" class="recharts-sector" d="M 322.5206243042476,237.98843784020897&#10;    A 100,100,0,&#10;    0,0,&#10;    420.93908270190957,141.48994967025007&#10;  L 380.96344962114574,140.09396980215004&#10;            A 60,60,0,&#10;            0,1,&#10;            321.9123745825485,197.99306270412538 Z" role="img"/></g></g><g class="recharts-layer recharts-pie-labels"><g class="recharts-layer"><text cx="321" cy="138" stroke="none" name="כרטיס ועמידים" stroke-width="2" alignment-baseline="middle" x="405.39704603207394" y="52.69385355638201" class="recharts-text recharts-pie-label-text" text-anchor="start" fill="#5A7863"><tspan x="405.39704603207394" dy="0em">26%</tspan></text></g><g class="recharts-layer"><text cx="321" cy="138" stroke="none" name="ביטוח וחסכון" stroke-width="2" alignment-baseline="middle" x="234.42035479531472" y="54.90989808508587" class="recharts-text recharts-pie-label-text" text-anchor="end" fill="#90AB8B"><tspan x="234.42035479531472" dy="0em">25%</tspan></text></g><g class="recharts-layer"><text cx="321" cy="138" stroke="none" name="הלוואות וניכיון" stroke-width="2" alignment-baseline="middle" x="236.6029539679261" y="223.30614644361802" class="recharts-text recharts-pie-label-text" text-anchor="end" fill="#EBF4DD"><tspan x="236.6029539679261" dy="0em">25%</tspan></text></g><g class="recharts-layer"><text cx="321" cy="138" stroke="none" name="ייעוץ פיננסי" stroke-width="2" alignment-baseline="middle" x="405.0129212166239" y="223.68447390659142" class="recharts-text recharts-pie-label-text" text-anchor="start" fill="#3B4953"><tspan x="405.0129212166239" dy="0em">25%</tspan></text></g></g></g></svg>