<svg xmlns="http://www.w3.org/2000/svg" class="recharts-surface" width="881" height="300" viewBox="0 0 881 300" style="width: 100%; height: 100%;"><title/><desc/><defs><clipPath id="recharts31-clip"><rect x="80" y="10" height="260" width="791"/></clipPath></defs><defs><linearGradient id="revenueGradient" x1="0" y1="0" x2="0" y2="1"><stop offset="5%" stop-color="hsl(var(--primary))" stop-opacity="0.3"/><stop offset="95%" stop-color="hsl(var(--primary))" stop-opacity="0"/></linearGradient></defs><g class="recharts-cartesian-grid"><g class="recharts-cartesian-grid-horizontal"><line stroke-dasharray="3 3" stroke="#e5e7eb" fill="none" x="80" y="10" width="791" height="260" x1="80" y1="270" x2="871" y2="270"/><line stroke-dasharray="3 3" stroke="#e5e7eb" fill="none" x="80" y="10" width="791" height="260" x1="80" y1="205" x2="871" y2="205"/><line stroke-dasharray="3 3" stroke="#e5e7eb" fill="none" x="80" y="10" width="791" height="260" x1="80" y1="140" x2="871" y2="140"/><line stroke-dasharray="3 3" stroke="#e5e7eb" fill="none" x="80" y="10" width="791" height="260" x1="80" y1="75" x2="871" y2="75"/><line stroke-dasharray="3 3" stroke="#e5e7eb" fill="none" x="80" y="10" width="791" height="260" x1="80" y1="10" x2="871" y2="10"/></g><g class="recharts-cartesian-grid-vertical"><line stroke-dasharray="3 3" stroke="#e5e7eb" fill="none" x="80" y="10" width="791" height="260" x1="80" y1="10" x2="80" y2="270"/><line stroke-dasharray="3 3" stroke="#e5e7eb" fill="none" x="80" y="10" width="791" height="260" x1="238.2" y1="10" x2="238.2" y2="270"/><line stroke-dasharray="3 3" stroke="#e5e7eb" fill="none" x="80" y="10" width="791" height="260" x1="396.4" y1="10" x2="396.4" y2="270"/><line stroke-dasharray="3 3" stroke="#e5e7eb" fill="none" x="80" y="10" width="791" height="260" x1="554.5999999999999" y1="10" x2="554.5999999999999" y2="270"/><line stroke-dasharray="3 3" stroke="#e5e7eb" fill="none" x="80" y="10" width="791" height="260" x1="712.8" y1="10" x2="712.8" y2="270"/><line stroke-dasharray="3 3" stroke="#e5e7eb" fill="none" x="80" y="10" width="791" height="260" x1="871" y1="10" x2="871" y2="270"/></g></g><g class="recharts-layer recharts-cartesian-axis recharts-xAxis xAxis"><line orientation="bottom" width="791" height="30" x="80" y="270" class="recharts-cartesian-axis-line" stroke="#e5e7eb" fill="none" x1="80" y1="270" x2="871" y2="270"/><g class="recharts-cartesian-axis-ticks"><g class="recharts-layer recharts-cartesian-axis-tick"><line orientation="bottom" width="791" height="30" x="80" y="270" class="recharts-cartesian-axis-tick-line" stroke="#666" fill="none" x1="80" y1="276" x2="80" y2="270"/><text orientation="bottom" width="791" height="30" stroke="none" font-size="12" font-family="Liebling" x="80" y="278" class="recharts-text recharts-cartesian-axis-tick-value" text-anchor="middle" fill="#6b7280"><tspan x="80" dy="0.71em">ינואר</tspan></text></g><g class="recharts-layer recharts-cartesian-axis-tick"><line orientation="bottom" width="791" height="30" x="80" y="270" class="recharts-cartesian-axis-tick-line" stroke="#666" fill="none" x1="238.2" y1="276" x2="238.2" y2="270"/><text orientation="bottom" width="791" height="30" stroke="none" font-size="12" font-family="Liebling" x="238.2" y="278" class="recharts-text recharts-cartesian-axis-tick-value" text-anchor="middle" fill="#6b7280"><tspan x="238.2" dy="0.71em">פברואר</tspan></text></g><g class="recharts-layer recharts-cartesian-axis-tick"><line orientation="bottom" width="791" height="30" x="80" y="270" class="recharts-cartesian-axis-tick-line" stroke="#666" fill="none" x1="396.4" y1="276" x2="396.4" y2="270"/><text orientation="bottom" width="791" height="30" stroke="none" font-size="12" font-family="Liebling" x="396.4" y="278" class="recharts-text recharts-cartesian-axis-tick-value" text-anchor="middle" fill="#6b7280"><tspan x="396.4" dy="0.71em">מרץ</tspan></text></g><g class="recharts-layer recharts-cartesian-axis-tick"><line orientation="bottom" width="791" height="30" x="80" y="270" class="recharts-cartesian-axis-tick-line" stroke="#666" fill="none" x1="554.5999999999999" y1="276" x2="554.5999999999999" y2="270"/><text orientation="bottom" width="791" height="30" stroke="none" font-size="12" font-family="Liebling" x="554.5999999999999" y="278" class="recharts-text recharts-cartesian-axis-tick-value" text-anchor="middle" fill="#6b7280"><tspan x="554.5999999999999" dy="0.71em">אפריל</tspan></text></g><g class="recharts-layer recharts-cartesian-axis-tick"><line orientation="bottom" width="791" height="30" x="80" y="270" class="recharts-cartesian-axis-tick-line" stroke="#666" fill="none" x1="712.8" y1="276" x2="712.8" y2="270"/><text orientation="bottom" width="791" height="30" stroke="none" font-size="12" font-family="Liebling" x="712.8" y="278" class="recharts-text recharts-cartesian-axis-tick-value" text-anchor="middle" fill="#6b7280"><tspan x="712.8" dy="0.71em">מאי</tspan></text></g><g class="recharts-layer recharts-cartesian-axis-tick"><line orientation="bottom" width="791" height="30" x="80" y="270" class="recharts-cartesian-axis-tick-line" stroke="#666" fill="none" x1="871" y1="276" x2="871" y2="270"/><text orientation="bottom" width="791" height="30" stroke="none" font-size="12" font-family="Liebling" x="871" y="278" class="recharts-text recharts-cartesian-axis-tick-value" text-anchor="middle" fill="#6b7280"><tspan x="871" dy="0.71em">יוני</tspan></text></g></g></g><g class="recharts-layer recharts-cartesian-axis recharts-yAxis yAxis"><line orientation="left" width="70" height="260" x="10" y="10" class="recharts-cartesian-axis-line" stroke="#e5e7eb" fill="none" x1="80" y1="10" x2="80" y2="270"/><g class="recharts-cartesian-axis-ticks"><g class="recharts-layer recharts-cartesian-axis-tick"><line orientation="left" width="70" height="260" x="10" y="10" class="recharts-cartesian-axis-tick-line" stroke="#666" fill="none" x1="74" y1="270" x2="80" y2="270"/><text orientation="left" width="70" height="260" stroke="none" font-size="12" font-family="Liebling" x="72" y="270" class="recharts-text recharts-cartesian-axis-tick-value" text-anchor="end" fill="#6b7280"><tspan x="72" dy="0.355em">₪0.0M</tspan></text></g><g class="recharts-layer recharts-cartesian-axis-tick"><line orientation="left" width="70" height="260" x="10" y="10" class="recharts-cartesian-axis-tick-line" stroke="#666" fill="none" x1="74" y1="205" x2="80" y2="205"/><text orientation="left" width="70" height="260" stroke="none" font-size="12" font-family="Liebling" x="72" y="205" class="recharts-text recharts-cartesian-axis-tick-value" text-anchor="end" fill="#6b7280"><tspan x="72" dy="0.355em">₪0.7M</tspan></text></g><g class="recharts-layer recharts-cartesian-axis-tick"><line orientation="left" width="70" height="260" x="10" y="10" class="recharts-cartesian-axis-tick-line" stroke="#666" fill="none" x1="74" y1="140" x2="80" y2="140"/><text orientation="left" width="70" height="260" stroke="none" font-size="12" font-family="Liebling" x="72" y="140" class="recharts-text recharts-cartesian-axis-tick-value" text-anchor="end" fill="#6b7280"><tspan x="72" dy="0.355em">₪1.3M</tspan></text></g><g class="recharts-layer recharts-cartesian-axis-tick"><line orientation="left" width="70" height="260" x="10" y="10" class="recharts-cartesian-axis-tick-line" stroke="#666" fill="none" x1="74" y1="75" x2="80" y2="75"/><text orientation="left" width="70" height="260" stroke="none" font-size="12" font-family="Liebling" x="72" y="75" class="recharts-text recharts-cartesian-axis-tick-value" text-anchor="end" fill="#6b7280"><tspan x="72" dy="0.355em">₪1.9M</tspan></text></g><g class="recharts-layer recharts-cartesian-axis-tick"><line orientation="left" width="70" height="260" x="10" y="10" class="recharts-cartesian-axis-tick-line" stroke="#666" fill="none" x1="74" y1="10" x2="80" y2="10"/><text orientation="left" width="70" height="260" stroke="none" font-size="12" font-family="Liebling" x="72" y="10" class="recharts-text recharts-cartesian-axis-tick-value" text-anchor="end" fill="#6b7280"><tspan x="72" dy="0.355em">₪2.6M</tspan></text></g></g></g><g class="recharts-layer recharts-area"><g class="recharts-layer"><defs><clipPath id="animationClipPath-recharts-area-33"><rect x="80" y="0" width="791" height="273"/></clipPath></defs><g class="recharts-layer" clip-path="url(#animationClipPath-recharts-area-33)"><g class="recharts-layer"><path stroke-width="3" fill="url(#revenueGradient)" fill-opacity="0.6" width="791" height="260" stroke="none" class="recharts-curve recharts-area-area" d="M80,29.3C132.733,107.95,185.467,186.6,238.2,186.6C290.933,186.6,343.667,183.683,396.4,182.5C449.133,181.317,501.867,180.583,554.6,179.5C607.333,178.417,660.067,177.083,712.8,176C765.533,174.917,818.267,173.958,871,173L871,270C818.267,270,765.533,270,712.8,270C660.067,270,607.333,270,554.6,270C501.867,270,449.133,270,396.4,270C343.667,270,290.933,270,238.2,270C185.467,270,132.733,270,80,270Z"/><path stroke="hsl(var(--primary))" stroke-width="3" fill="none" fill-opacity="0.6" width="791" height="260" class="recharts-curve recharts-area-curve" d="M80,29.3C132.733,107.95,185.467,186.6,238.2,186.6C290.933,186.6,343.667,183.683,396.4,182.5C449.133,181.317,501.867,180.583,554.6,179.5C607.333,178.417,660.067,177.083,712.8,176C765.533,174.917,818.267,173.958,871,173"/></g></g></g></g></svg>